<?xml version="1.0" standalone="no"?>
<svg
	xmlns:xlink="http://www.w3.org/1999/xlink"
	xmlns:dc="http://purl.org/dc/elements/1.1/"
	xmlns:cc="http://creativecommons.org/ns#"
	xmlns:rdf="http://www.w3.org/1999/02/22-rdf-syntax-ns#"
	xmlns:svg="http://www.w3.org/2000/svg"
	xmlns="http://www.w3.org/2000/svg"
	version="1.1"
	viewBox="0 0 2000 3000">
<defs>
</defs>
<g transform = "translate(-73, 1500) scale(1, -1)">
<path id="p1" fill="rgb(0, 0, 0)" d=" M 59 28 L 26 28 L 20 15 L 18 10 L 18 8 L 18 6 L 22 3 L 28 2 L 28 0 L 1 0 L 1 2 L 6 3 L 8 5 L 11 8 L 15 17 L 45 87 L 47 87 L 76 16 L 80 8 L 86 3 L 91 2 L 91 0 L 58 0 L 58 2 L 63 3 L 66 5 L 66 8 L 66 10 L 64 16 Z M 57 33 L 42 67 L 28 33 Z"/>
<path id="p2" fill="rgb(0, 0, 0)" d=" M 123 43 L 132 41 L 136 37 L 142 32 L 142 23 L 142 17 L 134 5 L 120 0 L 106 0 L 66 0 L 66 2 L 69 2 L 75 2 L 77 6 L 78 8 L 78 15 L 78 70 L 78 78 L 77 80 L 74 82 L 69 82 L 66 82 L 66 85 L 103 85 L 113 85 L 119 83 L 129 81 L 138 70 L 138 62 L 138 56 L 131 46 Z M 90 47 Q 93 46 Q 99 46 Q 102 46 Q 111 46 Q 121 50 Q 125 58 Q 125 63 Q 125 70 Q 113 81 Q 102 81 Q 95 81 Q 90 79 Z M 90 6 L 98 4 L 105 4 L 116 4 L 128 15 L 128 22 L 128 27 L 123 36 L 110 41 L 101 41 L 98 41 L 92 41 L 90 41 Z"/>
<path id="p3" fill="rgb(0, 0, 0)" d=" M 205 87 L 207 58 L 205 58 L 201 71 L 187 82 L 177 82 L 168 82 L 155 74 L 147 55 L 147 41 L 147 29 L 154 13 L 169 4 L 179 4 L 187 4 L 199 11 L 207 21 L 209 20 L 203 9 L 186 -2 L 174 -2 L 153 -2 L 141 14 L 133 25 L 133 41 L 133 54 L 144 75 L 164 87 L 176 87 L 185 87 L 194 82 L 197 81 L 198 81 L 199 81 L 201 82 L 202 84 L 203 87 Z"/>
<path id="p4" fill="rgb(0, 0, 0)" d=""/>
<path id="p5" fill="rgb(0, 0, 0)" d=" M 258 0 L 258 2 L 261 2 L 267 2 L 269 6 L 270 8 L 270 15 L 270 70 L 270 78 L 269 80 L 266 82 L 261 82 L 258 82 L 258 85 L 293 85 L 312 85 L 332 76 L 344 56 L 344 43 L 344 25 L 333 13 L 321 0 L 296 0 Z M 282 6 L 290 4 L 296 4 L 310 4 L 329 25 L 329 42 L 329 60 L 310 80 L 295 80 L 290 80 L 282 78 Z"/>
<path id="p6" fill="rgb(0, 0, 0)" d=" M 347 80 L 347 47 L 365 47 L 373 47 L 375 49 L 378 52 L 379 59 L 381 59 L 381 29 L 379 29 L 378 36 L 377 37 L 376 40 L 371 42 L 365 42 L 347 42 L 347 14 L 347 9 L 348 6 L 350 5 L 354 5 L 368 5 L 375 5 L 382 7 L 385 10 L 389 13 L 393 21 L 395 21 L 388 0 L 323 0 L 323 2 L 326 2 L 329 2 L 331 4 L 333 5 L 335 9 L 335 15 L 335 70 L 335 78 L 333 80 L 331 82 L 326 82 L 323 82 L 323 85 L 388 85 L 389 66 L 386 66 L 385 73 L 382 78 L 379 79 L 376 80 L 370 80 Z"/>
</g>
</svg>
