<?xml version="1.0" standalone="no"?>
<svg
	xmlns:xlink="http://www.w3.org/1999/xlink"
	xmlns:dc="http://purl.org/dc/elements/1.1/"
	xmlns:cc="http://creativecommons.org/ns#"
	xmlns:rdf="http://www.w3.org/1999/02/22-rdf-syntax-ns#"
	xmlns:svg="http://www.w3.org/2000/svg"
	xmlns="http://www.w3.org/2000/svg"
	version="1.1"
	viewBox="0 0 20000 30000">
<defs>
</defs>
<g transform = "translate(-15000, 5000) scale(1, -1)">
<g transform = "translate(0, 0)"><path id="p1" fill="rgb(0, 0, 0)" d=" M 2432 2752 L 2432 2158 L 2356 2158 Q 2334 2326 2296 2398 Q 2233 2514 2129 2569 Q 2026 2624 1857 2624 L 1472 2624 L 1472 512 Q 1472 229 1526 159 Q 1603 64 1762 64 L 1856 64 L 1856 0 L 704 0 L 704 64 L 800 64 Q 972 64 1044 182 Q 1088 254 1088 512 L 1088 2624 L 754 2624 Q 559 2624 477 2596 Q 370 2558 294 2450 Q 218 2342 204 2158 L 128 2158 L 128 2752 L 2432 2752"/></g>
<g transform = "translate(2560, 0)"><path id="p2" fill="rgb(0, 0, 0)" d=" M 640 2880 L 640 1522 Q 876 1776 1014 1848 Q 1152 1920 1290 1920 Q 1456 1920 1575 1830 Q 1694 1741 1752 1549 Q 1792 1415 1792 1060 L 1792 384 Q 1792 221 1818 161 Q 1837 116 1882 90 Q 1928 64 2048 64 L 2048 0 L 1216 0 L 1216 64 L 1252 64 Q 1363 64 1406 100 Q 1450 137 1467 208 Q 1472 238 1472 384 L 1472 1058 Q 1472 1371 1437 1468 Q 1403 1566 1328 1615 Q 1253 1664 1147 1664 Q 1038 1664 921 1611 Q 804 1559 640 1399 L 640 384 Q 640 208 658 165 Q 676 122 725 93 Q 775 64 896 64 L 896 0 L 64 0 L 64 64 Q 176 64 240 100 Q 276 118 298 170 Q 320 223 320 384 L 320 2112 Q 320 2448 307 2525 Q 295 2603 269 2629 Q 244 2656 200 2656 Q 165 2656 87 2624 L 64 2688 L 557 2880 L 640 2880"/></g>
<g transform = "translate(4608, 0)"><path id="p3" fill="rgb(0, 0, 0)" d=" M 448 1152 Q 446 733 637 494 Q 829 256 1087 256 Q 1259 256 1386 341 Q 1514 427 1600 704 L 1664 663 Q 1622 356 1422 146 Q 1222 -64 921 -64 Q 594 -64 361 198 Q 128 461 128 904 Q 128 1383 367 1651 Q 606 1920 966 1920 Q 1272 1920 1468 1711 Q 1664 1502 1664 1152 L 448 1152 M 448 1280 L 1216 1280 Q 1207 1465 1178 1540 Q 1133 1658 1043 1725 Q 953 1792 856 1792 Q 705 1792 586 1656 Q 468 1521 448 1280"/></g>
<g transform = "translate(6400, 0)"><path id="p4" fill="rgb(0, 0, 0)" d=""/></g>
<g transform = "translate(7424, 0)"><path id="p5" fill="rgb(0, 0, 0)" d=" M 1728 1920 L 1728 -512 Q 1728 -682 1748 -730 Q 1769 -778 1813 -805 Q 1857 -832 1984 -832 L 1984 -896 L 1152 -896 L 1152 -832 L 1185 -832 Q 1282 -832 1332 -801 Q 1366 -780 1387 -725 Q 1408 -670 1408 -512 L 1408 289 Q 1227 85 1091 10 Q 955 -64 810 -64 Q 545 -64 336 183 Q 128 430 128 845 Q 128 1321 408 1620 Q 688 1920 1084 1920 Q 1200 1920 1297 1891 Q 1395 1862 1472 1803 Q 1574 1854 1668 1920 L 1728 1920 M 1408 421 L 1408 1327 Q 1408 1485 1368 1575 Q 1329 1666 1227 1729 Q 1126 1792 999 1792 Q 772 1792 610 1592 Q 448 1392 448 986 Q 448 596 613 394 Q 778 192 1011 192 Q 1131 192 1240 245 Q 1349 299 1408 421"/></g>
<g transform = "translate(9472, 0)"><path id="p6" fill="rgb(0, 0, 0)" d=" M 1792 1856 L 1792 704 Q 1792 366 1804 290 Q 1817 215 1844 186 Q 1872 158 1908 158 Q 1960 158 2025 192 L 2048 128 L 1553 -64 L 1472 -64 L 1472 336 Q 1223 72 1091 4 Q 960 -64 815 -64 Q 652 -64 532 29 Q 413 122 366 268 Q 320 414 320 682 L 320 1536 Q 320 1654 297 1699 Q 274 1745 228 1769 Q 183 1794 64 1792 L 64 1856 L 640 1856 L 640 614 Q 640 354 737 273 Q 835 192 974 192 Q 1068 192 1187 246 Q 1307 301 1472 455 L 1472 1536 Q 1472 1684 1422 1736 Q 1373 1788 1216 1792 L 1216 1856 L 1792 1856"/></g>
<g transform = "translate(11520, 0)"><path id="p7" fill="rgb(0, 0, 0)" d=" M 673 2880 Q 739 2880 785 2833 Q 832 2787 832 2721 Q 832 2655 785 2607 Q 739 2560 673 2560 Q 607 2560 559 2607 Q 512 2655 512 2721 Q 512 2787 558 2833 Q 605 2880 673 2880 M 768 1920 L 768 384 Q 768 223 791 169 Q 814 116 859 90 Q 904 64 1024 64 L 1024 0 L 192 0 L 192 64 Q 315 64 357 88 Q 399 113 423 169 Q 448 225 448 384 L 448 1152 Q 448 1477 433 1572 Q 421 1642 396 1668 Q 372 1694 328 1694 Q 282 1694 215 1664 L 192 1728 L 689 1920 L 768 1920"/></g>
<g transform = "translate(12672, 0)"><path id="p8" fill="rgb(0, 0, 0)" d=" M 1664 677 Q 1590 288 1375 112 Q 1161 -64 900 -64 Q 590 -64 359 203 Q 128 471 128 927 Q 128 1368 381 1644 Q 635 1920 990 1920 Q 1257 1920 1428 1770 Q 1600 1620 1600 1458 Q 1600 1379 1551 1329 Q 1503 1280 1417 1280 Q 1300 1280 1273 1362 Q 1207 1407 1196 1534 Q 1186 1661 1117 1727 Q 1048 1792 925 1792 Q 728 1792 608 1640 Q 448 1439 448 1108 Q 448 771 607 513 Q 767 256 1039 256 Q 1233 256 1388 352 Q 1497 440 1600 704 L 1664 677"/></g>
<g transform = "translate(14464, 0)"><path id="p9" fill="rgb(0, 0, 0)" d=" M 640 2880 L 640 1020 L 1133 1457 Q 1284 1598 1308 1636 Q 1324 1661 1324 1686 Q 1324 1727 1291 1757 Q 1258 1788 1182 1792 L 1182 1856 L 1984 1856 L 1984 1792 Q 1814 1788 1701 1743 Q 1588 1699 1453 1584 L 942 1134 L 1452 515 Q 1652 272 1712 199 Q 1806 110 1877 83 Q 1926 64 2048 64 L 2048 0 L 1182 0 L 1182 64 Q 1258 66 1285 88 Q 1312 110 1312 149 Q 1312 196 1232 302 L 640 1020 L 640 384 Q 640 216 661 163 Q 683 111 723 88 Q 763 66 896 64 L 896 0 L 64 0 L 64 64 Q 182 64 241 97 Q 276 118 295 163 Q 320 227 320 384 L 320 2112 Q 320 2451 308 2527 Q 296 2603 269 2630 Q 243 2658 199 2658 Q 163 2658 93 2624 L 64 2688 L 557 2880 L 640 2880"/></g>
<g transform = "translate(16512, 0)"><path id="p10" fill="rgb(0, 0, 0)" d=""/></g>
<g transform = "translate(17536, 0)"><path id="p11" fill="rgb(0, 0, 0)" d=" M 640 1573 Q 907 1920 1216 1920 Q 1499 1920 1709 1674 Q 1920 1428 1920 1001 Q 1920 502 1597 198 Q 1320 -64 980 -64 Q 820 -64 655 -9 Q 491 45 320 155 L 320 2112 Q 320 2448 307 2525 Q 295 2602 268 2629 Q 242 2656 203 2656 Q 156 2656 87 2624 L 64 2688 L 559 2880 L 640 2880 L 640 1573 M 640 1438 L 640 278 Q 745 172 857 118 Q 970 64 1088 64 Q 1276 64 1438 275 Q 1600 487 1600 892 Q 1600 1264 1438 1464 Q 1276 1664 1069 1664 Q 960 1664 851 1607 Q 768 1565 640 1438"/></g>
<g transform = "translate(19584, 0)"><path id="p12" fill="rgb(0, 0, 0)" d=" M 640 1920 L 640 1596 Q 863 1920 1098 1920 Q 1204 1920 1274 1867 Q 1344 1815 1344 1746 Q 1344 1685 1297 1642 Q 1251 1600 1186 1600 Q 1123 1600 1035 1632 Q 948 1664 906 1664 Q 869 1664 827 1632 Q 737 1566 640 1414 L 640 384 Q 640 262 670 199 Q 691 156 744 110 Q 797 64 896 64 L 896 0 L 64 0 L 64 64 Q 188 64 249 105 Q 293 136 311 201 Q 320 233 320 384 L 320 1152 Q 320 1502 309 1569 Q 298 1636 269 1665 Q 240 1694 197 1694 Q 145 1694 81 1664 L 64 1728 L 564 1920 L 640 1920"/></g>
<g transform = "translate(20928, 0)"><path id="p13" fill="rgb(0, 0, 0)" d=" M 1026 1920 Q 1448 1920 1703 1597 Q 1920 1321 1920 964 Q 1920 712 1800 455 Q 1681 198 1471 67 Q 1261 -64 1004 -64 Q 584 -64 337 273 Q 128 557 128 911 Q 128 1168 254 1422 Q 381 1677 588 1798 Q 795 1920 1026 1920 M 963 1792 Q 855 1792 746 1727 Q 638 1662 571 1498 Q 504 1335 504 1078 Q 504 664 665 364 Q 827 64 1091 64 Q 1288 64 1416 229 Q 1544 395 1544 799 Q 1544 1304 1331 1593 Q 1187 1792 963 1792"/></g>
<g transform = "translate(22976, 0)"><path id="p14" fill="rgb(0, 0, 0)" d=" M 30 1856 L 796 1856 L 796 1792 Q 690 1784 657 1753 Q 624 1722 624 1664 Q 624 1600 658 1509 L 1109 403 L 1560 1353 L 1472 1577 Q 1424 1706 1346 1755 Q 1302 1786 1182 1792 L 1182 1856 L 1920 1856 L 1920 1792 Q 1849 1785 1819 1730 Q 1799 1691 1799 1607 Q 1799 1575 1816 1541 L 2258 430 L 2624 1502 Q 2688 1616 2688 1684 Q 2688 1724 2644 1756 Q 2600 1788 2472 1792 L 2472 1856 L 3024 1856 L 3024 1792 Q 2850 1764 2768 1536 L 2222 -64 L 2112 -64 L 1621 1195 L 1023 -64 L 958 -64 L 320 1502 Q 262 1657 206 1710 Q 150 1764 30 1792 L 30 1856"/></g>
<g transform = "translate(25920, 0)"><path id="p15" fill="rgb(0, 0, 0)" d=" M 640 1520 Q 981 1920 1290 1920 Q 1449 1920 1563 1841 Q 1678 1763 1745 1584 Q 1792 1459 1792 1200 L 1792 384 Q 1792 221 1818 163 Q 1838 116 1882 90 Q 1927 64 2048 64 L 2048 0 L 1216 0 L 1216 64 L 1249 64 Q 1360 64 1404 100 Q 1448 137 1465 208 Q 1472 236 1472 384 L 1472 1167 Q 1472 1428 1400 1546 Q 1329 1664 1160 1664 Q 899 1664 640 1400 L 640 384 Q 640 210 659 169 Q 683 115 725 89 Q 767 64 896 64 L 896 0 L 64 0 L 64 64 L 101 64 Q 230 64 275 130 Q 320 197 320 384 L 320 1152 Q 320 1493 307 1567 Q 295 1641 269 1667 Q 244 1694 200 1694 Q 154 1694 89 1664 L 64 1728 L 562 1920 L 640 1920 L 640 1520"/></g>
<g transform = "translate(27968, 0)"><path id="p16" fill="rgb(0, 0, 0)" d=""/></g>
<g transform = "translate(28992, 0)"><path id="p17" fill="rgb(0, 0, 0)" d=" M 832 1728 L 832 576 Q 832 258 892 173 Q 971 64 1103 64 L 1280 64 L 1280 0 L 128 0 L 128 64 L 220 64 Q 309 64 382 113 Q 456 163 484 247 Q 512 332 512 576 L 512 1728 L 128 1728 L 128 1856 L 512 1856 L 512 1978 Q 512 2256 601 2449 Q 690 2642 873 2761 Q 1056 2880 1284 2880 Q 1497 2880 1675 2742 Q 1792 2650 1792 2537 Q 1792 2476 1738 2422 Q 1685 2368 1624 2368 Q 1577 2368 1524 2403 Q 1472 2438 1396 2554 Q 1320 2671 1257 2711 Q 1193 2752 1115 2752 Q 1021 2752 955 2701 Q 889 2650 860 2543 Q 832 2437 832 1993 L 832 1856 L 1344 1856 L 1344 1728 L 832 1728"/></g>
<g transform = "translate(30336, 0)"><path id="p18" fill="rgb(0, 0, 0)" d=" M 1026 1920 Q 1448 1920 1703 1597 Q 1920 1321 1920 964 Q 1920 712 1800 455 Q 1681 198 1471 67 Q 1261 -64 1004 -64 Q 584 -64 337 273 Q 128 557 128 911 Q 128 1168 254 1422 Q 381 1677 588 1798 Q 795 1920 1026 1920 M 963 1792 Q 855 1792 746 1727 Q 638 1662 571 1498 Q 504 1335 504 1078 Q 504 664 665 364 Q 827 64 1091 64 Q 1288 64 1416 229 Q 1544 395 1544 799 Q 1544 1304 1331 1593 Q 1187 1792 963 1792"/></g>
<g transform = "translate(32384, 0)"><path id="p19" fill="rgb(0, 0, 0)" d=" M 0 1856 L 832 1856 L 832 1792 Q 761 1792 732 1762 Q 704 1732 704 1682 Q 704 1631 787 1523 Q 815 1487 871 1409 L 1068 1170 L 1233 1368 Q 1410 1582 1408 1654 Q 1408 1712 1363 1752 Q 1318 1792 1218 1792 L 1218 1856 L 1920 1856 L 1920 1792 Q 1803 1785 1717 1732 Q 1600 1655 1405 1400 L 1125 1063 L 1600 419 Q 1777 171 1852 120 Q 1928 70 2048 64 L 2048 0 L 1173 0 L 1173 64 Q 1259 64 1307 101 Q 1344 127 1344 170 Q 1344 213 1237 387 L 928 823 L 587 411 Q 448 228 448 194 Q 448 146 496 107 Q 544 68 640 64 L 640 0 L 64 0 L 64 64 Q 136 74 191 115 Q 267 175 448 419 L 852 908 L 448 1458 Q 295 1679 211 1735 Q 127 1792 0 1792 L 0 1856"/></g>
<g transform = "translate(34432, 0)"><path id="p20" fill="rgb(0, 0, 0)" d=""/></g>
<g transform = "translate(35456, 0)"><path id="p21" fill="rgb(0, 0, 0)" d=" M 607 2880 Q 674 2880 721 2833 Q 768 2786 768 2719 Q 768 2654 721 2607 Q 674 2560 607 2560 Q 542 2560 495 2607 Q 448 2654 448 2719 Q 448 2786 495 2833 Q 542 2880 607 2880 M 768 1920 L 768 45 Q 768 -432 566 -664 Q 364 -896 41 -896 Q -142 -896 -231 -839 Q -320 -782 -320 -722 Q -320 -662 -270 -619 Q -220 -576 -153 -576 Q -100 -576 -45 -599 Q -10 -612 101 -690 Q 212 -768 274 -768 Q 320 -768 363 -729 Q 406 -691 427 -600 Q 448 -509 448 -207 L 448 1152 Q 448 1478 433 1571 Q 421 1642 396 1668 Q 372 1694 328 1694 Q 282 1694 215 1664 L 192 1728 L 690 1920 L 768 1920"/></g>
<g transform = "translate(36608, 0)"><path id="p22" fill="rgb(0, 0, 0)" d=" M 1792 1856 L 1792 704 Q 1792 366 1804 290 Q 1817 215 1844 186 Q 1872 158 1908 158 Q 1960 158 2025 192 L 2048 128 L 1553 -64 L 1472 -64 L 1472 336 Q 1223 72 1091 4 Q 960 -64 815 -64 Q 652 -64 532 29 Q 413 122 366 268 Q 320 414 320 682 L 320 1536 Q 320 1654 297 1699 Q 274 1745 228 1769 Q 183 1794 64 1792 L 64 1856 L 640 1856 L 640 614 Q 640 354 737 273 Q 835 192 974 192 Q 1068 192 1187 246 Q 1307 301 1472 455 L 1472 1536 Q 1472 1684 1422 1736 Q 1373 1788 1216 1792 L 1216 1856 L 1792 1856"/></g>
<g transform = "translate(38656, 0)"><path id="p23" fill="rgb(0, 0, 0)" d=" M 640 1512 Q 836 1721 872 1753 Q 960 1832 1062 1876 Q 1164 1920 1264 1920 Q 1433 1920 1555 1815 Q 1677 1711 1718 1512 Q 1920 1763 2059 1841 Q 2198 1920 2344 1920 Q 2487 1920 2597 1841 Q 2708 1763 2773 1586 Q 2816 1465 2816 1206 L 2816 384 Q 2816 223 2840 163 Q 2859 122 2909 93 Q 2959 64 3072 64 L 3072 0 L 2240 0 L 2240 64 L 2273 64 Q 2375 64 2432 107 Q 2472 137 2489 202 Q 2496 234 2496 384 L 2496 1203 Q 2496 1435 2443 1531 Q 2366 1664 2197 1664 Q 2092 1664 1987 1610 Q 1882 1557 1732 1411 L 1728 1389 L 1728 1299 L 1728 384 Q 1728 208 1746 165 Q 1764 122 1814 93 Q 1864 64 1984 64 L 1984 0 L 1152 0 L 1152 64 Q 1283 64 1332 97 Q 1381 131 1399 199 Q 1408 231 1408 384 L 1408 1208 Q 1408 1442 1343 1538 Q 1257 1664 1102 1664 Q 996 1664 891 1607 Q 728 1520 640 1411 L 640 384 Q 640 216 661 165 Q 683 115 725 89 Q 767 64 896 64 L 896 0 L 64 0 L 64 64 Q 180 64 226 89 Q 272 115 296 170 Q 320 225 320 384 L 320 1152 Q 320 1477 305 1571 Q 293 1642 268 1668 Q 244 1694 200 1694 Q 154 1694 89 1664 L 64 1728 L 562 1920 L 640 1920 L 640 1512"/></g>
<g transform = "translate(41792, 0)"><path id="p24" fill="rgb(0, 0, 0)" d=" M 64 1728 L 572 1920 L 640 1920 L 640 1512 Q 783 1738 927 1829 Q 1071 1920 1230 1920 Q 1507 1920 1693 1699 Q 1920 1430 1920 996 Q 1920 512 1646 195 Q 1421 -64 1079 -64 Q 930 -64 821 -19 Q 741 12 640 108 L 640 -512 Q 640 -684 659 -730 Q 678 -777 725 -804 Q 772 -832 896 -832 L 896 -896 L 64 -896 L 64 -832 L 104 -832 Q 193 -834 256 -795 Q 286 -775 303 -732 Q 320 -689 320 -512 L 320 1408 Q 320 1563 306 1605 Q 293 1647 264 1669 Q 235 1692 185 1692 Q 145 1692 84 1664 L 64 1728 M 640 1388 L 640 674 Q 640 442 659 369 Q 688 248 802 156 Q 917 64 1091 64 Q 1300 64 1430 227 Q 1600 440 1600 826 Q 1600 1265 1407 1501 Q 1273 1664 1089 1664 Q 988 1664 889 1614 Q 814 1576 640 1388"/></g>
<g transform = "translate(43840, 0)"><path id="p25" fill="rgb(0, 0, 0)" d=" M 1344 1920 L 1344 1280 L 1280 1280 Q 1202 1577 1079 1684 Q 957 1792 768 1792 Q 625 1792 536 1717 Q 448 1642 448 1551 Q 448 1437 506 1356 Q 563 1273 757 1180 L 1056 1036 Q 1472 834 1472 503 Q 1472 248 1276 92 Q 1081 -64 839 -64 Q 665 -64 442 -16 Q 374 0 330 0 Q 283 0 256 -64 L 192 -64 L 192 576 L 256 576 Q 313 322 474 193 Q 635 64 834 64 Q 975 64 1063 152 Q 1152 241 1152 365 Q 1152 515 1072 617 Q 992 720 694 863 Q 396 1006 294 1120 Q 192 1231 192 1401 Q 192 1623 353 1771 Q 514 1920 770 1920 Q 883 1920 1043 1881 Q 1149 1856 1184 1856 Q 1218 1856 1236 1868 Q 1255 1880 1280 1920 L 1344 1920"/></g>
<g transform = "translate(45440, 0)"><path id="p26" fill="rgb(0, 0, 0)" d=""/></g>
<g transform = "translate(46464, 0)"><path id="p27" fill="rgb(0, 0, 0)" d=" M 1026 1920 Q 1448 1920 1703 1597 Q 1920 1321 1920 964 Q 1920 712 1800 455 Q 1681 198 1471 67 Q 1261 -64 1004 -64 Q 584 -64 337 273 Q 128 557 128 911 Q 128 1168 254 1422 Q 381 1677 588 1798 Q 795 1920 1026 1920 M 963 1792 Q 855 1792 746 1727 Q 638 1662 571 1498 Q 504 1335 504 1078 Q 504 664 665 364 Q 827 64 1091 64 Q 1288 64 1416 229 Q 1544 395 1544 799 Q 1544 1304 1331 1593 Q 1187 1792 963 1792"/></g>
<g transform = "translate(48512, 0)"><path id="p28" fill="rgb(0, 0, 0)" d=" M 24 1856 L 882 1856 L 882 1792 L 826 1792 Q 748 1792 703 1754 Q 658 1716 658 1652 Q 658 1582 704 1486 L 1120 474 L 1536 1524 Q 1582 1636 1582 1694 Q 1582 1722 1566 1740 Q 1544 1770 1510 1781 Q 1476 1792 1372 1792 L 1372 1856 L 1949 1856 L 1949 1792 Q 1845 1783 1805 1743 Q 1735 1673 1679 1510 L 1055 -64 L 987 -64 L 344 1500 Q 300 1618 260 1669 Q 220 1720 158 1755 Q 124 1775 24 1792 L 24 1856"/></g>
<g transform = "translate(50496, 0)"><path id="p29" fill="rgb(0, 0, 0)" d=" M 448 1152 Q 446 733 637 494 Q 829 256 1087 256 Q 1259 256 1386 341 Q 1514 427 1600 704 L 1664 663 Q 1622 356 1422 146 Q 1222 -64 921 -64 Q 594 -64 361 198 Q 128 461 128 904 Q 128 1383 367 1651 Q 606 1920 966 1920 Q 1272 1920 1468 1711 Q 1664 1502 1664 1152 L 448 1152 M 448 1280 L 1216 1280 Q 1207 1465 1178 1540 Q 1133 1658 1043 1725 Q 953 1792 856 1792 Q 705 1792 586 1656 Q 468 1521 448 1280"/></g>
<g transform = "translate(52288, 0)"><path id="p30" fill="rgb(0, 0, 0)" d=" M 640 1920 L 640 1596 Q 863 1920 1098 1920 Q 1204 1920 1274 1867 Q 1344 1815 1344 1746 Q 1344 1685 1297 1642 Q 1251 1600 1186 1600 Q 1123 1600 1035 1632 Q 948 1664 906 1664 Q 869 1664 827 1632 Q 737 1566 640 1414 L 640 384 Q 640 262 670 199 Q 691 156 744 110 Q 797 64 896 64 L 896 0 L 64 0 L 64 64 Q 188 64 249 105 Q 293 136 311 201 Q 320 233 320 384 L 320 1152 Q 320 1502 309 1569 Q 298 1636 269 1665 Q 240 1694 197 1694 Q 145 1694 81 1664 L 64 1728 L 564 1920 L 640 1920"/></g>
<g transform = "translate(53632, 0)"><path id="p31" fill="rgb(0, 0, 0)" d=""/></g>
<g transform = "translate(54656, 0)"><path id="p32" fill="rgb(0, 0, 0)" d=" M 640 2496 L 640 1856 L 1068 1856 L 1068 1728 L 640 1728 L 640 503 Q 640 320 696 256 Q 753 192 841 192 Q 914 192 982 224 Q 1050 257 1088 320 L 1152 320 Q 1080 129 949 32 Q 819 -64 680 -64 Q 586 -64 496 -11 Q 406 42 363 141 Q 320 240 320 446 L 320 1728 L 0 1728 L 0 1788 Q 119 1833 243 1940 Q 368 2047 454 2200 Q 498 2281 576 2496 L 640 2496"/></g>
<g transform = "translate(55808, 0)"><path id="p33" fill="rgb(0, 0, 0)" d=" M 640 2880 L 640 1522 Q 876 1776 1014 1848 Q 1152 1920 1290 1920 Q 1456 1920 1575 1830 Q 1694 1741 1752 1549 Q 1792 1415 1792 1060 L 1792 384 Q 1792 221 1818 161 Q 1837 116 1882 90 Q 1928 64 2048 64 L 2048 0 L 1216 0 L 1216 64 L 1252 64 Q 1363 64 1406 100 Q 1450 137 1467 208 Q 1472 238 1472 384 L 1472 1058 Q 1472 1371 1437 1468 Q 1403 1566 1328 1615 Q 1253 1664 1147 1664 Q 1038 1664 921 1611 Q 804 1559 640 1399 L 640 384 Q 640 208 658 165 Q 676 122 725 93 Q 775 64 896 64 L 896 0 L 64 0 L 64 64 Q 176 64 240 100 Q 276 118 298 170 Q 320 223 320 384 L 320 2112 Q 320 2448 307 2525 Q 295 2603 269 2629 Q 244 2656 200 2656 Q 165 2656 87 2624 L 64 2688 L 557 2880 L 640 2880"/></g>
<g transform = "translate(57856, 0)"><path id="p34" fill="rgb(0, 0, 0)" d=" M 448 1152 Q 446 733 637 494 Q 829 256 1087 256 Q 1259 256 1386 341 Q 1514 427 1600 704 L 1664 663 Q 1622 356 1422 146 Q 1222 -64 921 -64 Q 594 -64 361 198 Q 128 461 128 904 Q 128 1383 367 1651 Q 606 1920 966 1920 Q 1272 1920 1468 1711 Q 1664 1502 1664 1152 L 448 1152 M 448 1280 L 1216 1280 Q 1207 1465 1178 1540 Q 1133 1658 1043 1725 Q 953 1792 856 1792 Q 705 1792 586 1656 Q 468 1521 448 1280"/></g>
<g transform = "translate(59648, 0)"><path id="p35" fill="rgb(0, 0, 0)" d=""/></g>
<g transform = "translate(60672, 0)"><path id="p36" fill="rgb(0, 0, 0)" d=" M 704 2880 L 704 384 Q 704 223 725 170 Q 747 118 792 91 Q 837 64 960 64 L 960 0 L 128 0 L 128 64 Q 247 64 291 88 Q 335 113 359 169 Q 384 225 384 384 L 384 2112 Q 384 2448 372 2525 Q 360 2602 334 2629 Q 308 2656 268 2656 Q 224 2656 157 2624 L 128 2688 L 622 2880 L 704 2880"/></g>
<g transform = "translate(61760, 0)"><path id="p37" fill="rgb(0, 0, 0)" d=" M 1216 267 Q 915 28 838 -9 Q 723 -64 593 -64 Q 390 -64 259 75 Q 128 215 128 443 Q 128 587 192 692 Q 279 838 496 966 Q 713 1095 1216 1280 L 1216 1347 Q 1216 1602 1116 1697 Q 1016 1792 825 1792 Q 680 1792 595 1727 Q 508 1661 508 1576 L 512 1465 Q 512 1376 467 1328 Q 423 1280 351 1280 Q 281 1280 236 1331 Q 192 1382 192 1470 Q 192 1638 377 1779 Q 562 1920 896 1920 Q 1152 1920 1316 1835 Q 1439 1771 1498 1634 Q 1536 1545 1536 1270 L 1536 627 Q 1536 355 1546 294 Q 1556 233 1579 212 Q 1603 192 1634 192 Q 1666 192 1691 203 Q 1734 224 1856 320 L 1856 230 Q 1633 -64 1431 -64 Q 1333 -64 1275 11 Q 1218 86 1216 267 M 1216 406 L 1216 1152 Q 877 1024 778 970 Q 601 876 524 773 Q 448 671 448 549 Q 448 395 544 293 Q 641 192 767 192 Q 938 192 1216 406"/></g>
<g transform = "translate(63552, 0)"><path id="p38" fill="rgb(0, 0, 0)" d=" M 1728 576 L 1728 0 L 64 0 L 64 69 L 1299 1728 L 768 1728 Q 528 1728 454 1702 Q 380 1676 333 1603 Q 266 1498 256 1344 L 192 1344 L 192 1856 L 1728 1856 L 1728 1788 L 492 128 L 1152 128 Q 1386 128 1469 164 Q 1553 201 1604 293 Q 1640 360 1664 576 L 1728 576"/></g>
<g transform = "translate(65344, 0)"><path id="p39" fill="rgb(0, 0, 0)" d=" M -47 1856 L 796 1856 L 796 1792 L 754 1792 Q 664 1792 619 1749 Q 574 1707 574 1643 Q 574 1558 640 1407 L 1108 430 L 1536 1500 Q 1570 1591 1570 1679 Q 1570 1719 1556 1739 Q 1540 1763 1506 1777 Q 1472 1792 1386 1792 L 1386 1856 L 1936 1856 L 1936 1792 Q 1862 1783 1822 1756 Q 1782 1730 1734 1657 Q 1716 1626 1666 1486 L 902 -426 Q 800 -658 635 -777 Q 471 -896 318 -896 Q 207 -896 135 -843 Q 64 -790 64 -721 Q 64 -656 116 -616 Q 169 -576 260 -576 Q 323 -576 432 -614 Q 508 -640 528 -640 Q 588 -640 659 -577 Q 731 -515 803 -336 L 951 33 L 279 1437 Q 249 1509 183 1617 Q 133 1699 101 1727 Q 55 1764 -47 1792 L -47 1856"/></g>
<g transform = "translate(67264, 0)"><path id="p40" fill="rgb(0, 0, 0)" d=""/></g>
<g transform = "translate(68288, 0)"><path id="p41" fill="rgb(0, 0, 0)" d=" M 1408 266 Q 1275 75 1147 5 Q 1020 -64 873 -64 Q 574 -64 351 192 Q 128 448 128 850 Q 128 1253 375 1586 Q 622 1920 1010 1920 Q 1251 1920 1408 1730 L 1408 2112 Q 1408 2448 1395 2525 Q 1383 2603 1356 2629 Q 1329 2656 1289 2656 Q 1246 2656 1174 2624 L 1152 2688 L 1646 2880 L 1728 2880 L 1728 704 Q 1728 365 1740 290 Q 1753 215 1780 186 Q 1808 158 1845 158 Q 1890 158 1966 192 L 1984 128 L 1491 -64 L 1408 -64 L 1408 266 M 1408 406 L 1408 1286 Q 1395 1454 1332 1566 Q 1270 1678 1167 1735 Q 1064 1792 966 1792 Q 782 1792 638 1634 Q 448 1426 448 1026 Q 448 622 631 407 Q 815 192 1041 192 Q 1231 192 1408 406"/></g>
<g transform = "translate(70336, 0)"><path id="p42" fill="rgb(0, 0, 0)" d=" M 1026 1920 Q 1448 1920 1703 1597 Q 1920 1321 1920 964 Q 1920 712 1800 455 Q 1681 198 1471 67 Q 1261 -64 1004 -64 Q 584 -64 337 273 Q 128 557 128 911 Q 128 1168 254 1422 Q 381 1677 588 1798 Q 795 1920 1026 1920 M 963 1792 Q 855 1792 746 1727 Q 638 1662 571 1498 Q 504 1335 504 1078 Q 504 664 665 364 Q 827 64 1091 64 Q 1288 64 1416 229 Q 1544 395 1544 799 Q 1544 1304 1331 1593 Q 1187 1792 963 1792"/></g>
<g transform = "translate(72384, 0)"><path id="p43" fill="rgb(0, 0, 0)" d=" M 610 742 Q 439 821 347 963 Q 256 1106 256 1278 Q 256 1541 464 1730 Q 672 1920 996 1920 Q 1262 1920 1457 1792 L 1850 1792 Q 1937 1792 1951 1788 Q 1966 1785 1972 1776 Q 1984 1764 1984 1731 Q 1984 1694 1974 1680 Q 1968 1673 1953 1668 Q 1938 1664 1853 1664 L 1616 1664 Q 1728 1515 1728 1283 Q 1728 1017 1528 828 Q 1329 640 993 640 Q 855 640 710 692 Q 594 609 553 547 Q 512 485 512 442 Q 512 405 547 370 Q 582 335 684 320 Q 744 320 982 320 Q 1420 320 1550 320 Q 1748 292 1866 171 Q 1984 51 1984 -126 Q 1984 -369 1769 -582 Q 1452 -896 942 -896 Q 550 -896 280 -719 Q 128 -618 128 -508 Q 128 -459 148 -411 Q 178 -335 273 -201 Q 286 -183 456 18 Q 347 87 301 141 Q 256 196 256 265 Q 256 342 319 446 Q 382 551 610 742 M 963 1792 Q 798 1792 687 1682 Q 576 1573 576 1346 Q 576 1052 727 891 Q 843 768 1021 768 Q 1190 768 1299 874 Q 1408 980 1408 1207 Q 1408 1502 1255 1669 Q 1141 1792 963 1792 M 558 0 Q 472 -101 428 -188 Q 384 -276 384 -350 Q 384 -445 506 -517 Q 717 -640 1116 -640 Q 1495 -640 1675 -504 Q 1856 -368 1856 -214 Q 1856 -103 1746 -56 Q 1634 -9 1303 0 Q 818 0 558 0"/></g>
<g transform = "translate(74432, 0)"><path id="p44" fill="rgb(0, 0, 0)" d=" M 480 256 Q 548 256 594 209 Q 640 162 640 96 Q 640 30 593 -17 Q 546 -64 480 -64 Q 414 -64 367 -17 Q 320 30 320 96 Q 320 164 367 210 Q 414 256 480 256"/></g>
</g>
</svg>
